Coda Normal-BoldCopy.ufo
<glyph name="percent" format="1">
  <advance width="2912"/>
  <unicode hex="0025"/>
  <outline>
    <contour>
      <point x="655" y="821" type="curve" smooth="yes"/>
      <point x="638" y="821"/>
      <point x="595" y="823"/>
      <point x="595" y="843" type="curve" smooth="yes"/>
      <point x="595" y="847"/>
      <point x="595" y="1342"/>
      <point x="595" y="1348" type="curve" smooth="yes"/>
      <point x="595" y="1371"/>
      <point x="638" y="1371"/>
      <point x="657" y="1371" type="curve" smooth="yes"/>
      <point x="676" y="1371"/>
      <point x="717" y="1371"/>
      <point x="717" y="1348" type="curve" smooth="yes"/>
      <point x="717" y="843" type="line" smooth="yes"/>
      <point x="717" y="823"/>
      <point x="675" y="821"/>
    </contour>
    <contour>
      <point x="654" y="615" type="curve" smooth="yes"/>
      <point x="881" y="615"/>
      <point x="1094" y="632"/>
      <point x="1094" y="926" type="curve" smooth="yes"/>
      <point x="1094" y="935"/>
      <point x="1094" y="1266"/>
      <point x="1094" y="1272" type="curve" smooth="yes"/>
      <point x="1092" y="1558"/>
      <point x="879" y="1579"/>
      <point x="653" y="1579" type="curve" smooth="yes"/>
      <point x="428" y="1579"/>
      <point x="214" y="1557"/>
      <point x="214" y="1270" type="curve" smooth="yes"/>
      <point x="214" y="1261"/>
      <point x="214" y="931"/>
      <point x="215" y="924" type="curve" smooth="yes"/>
      <point x="216" y="625"/>
      <point x="423" y="615"/>
    </contour>
    <contour>
      <point x="2258" y="342" type="curve" smooth="yes"/>
      <point x="2241" y="342"/>
      <point x="2200" y="344"/>
      <point x="2200" y="364" type="curve" smooth="yes"/>
      <point x="2200" y="368"/>
      <point x="2200" y="863"/>
      <point x="2200" y="869" type="curve" smooth="yes"/>
      <point x="2200" y="892"/>
      <point x="2242" y="892"/>
      <point x="2260" y="892" type="curve" smooth="yes"/>
      <point x="2279" y="892"/>
      <point x="2320" y="891"/>
      <point x="2320" y="869" type="curve" smooth="yes"/>
      <point x="2320" y="364" type="line" smooth="yes"/>
      <point x="2320" y="344"/>
      <point x="2278" y="342"/>
    </contour>
    <contour>
      <point x="2258" y="133" type="curve" smooth="yes"/>
      <point x="2483" y="133"/>
      <point x="2698" y="161"/>
      <point x="2698" y="446" type="curve" smooth="yes"/>
      <point x="2698" y="454"/>
      <point x="2698" y="783"/>
      <point x="2698" y="789" type="curve" smooth="yes"/>
      <point x="2697" y="1078"/>
      <point x="2486" y="1100"/>
      <point x="2257" y="1100" type="curve" smooth="yes"/>
      <point x="2030" y="1100"/>
      <point x="1819" y="1078"/>
      <point x="1819" y="789" type="curve" smooth="yes"/>
      <point x="1819" y="780"/>
      <point x="1819" y="452"/>
      <point x="1819" y="445" type="curve" smooth="yes"/>
      <point x="1820" y="154"/>
      <point x="2028" y="133"/>
    </contour>
    <contour>
      <point x="1087" y="-35" type="line"/>
      <point x="1453" y="-35" type="line"/>
      <point x="1829" y="1626" type="line"/>
      <point x="1466" y="1626" type="line"/>
    </contour>
  </outline>
</glyph>
<glyph name="ampersand" format="1">
  <advance width="1717"/>
  <unicode hex="0026"/>
  <outline>
    <contour>
      <point x="801" y="-22" type="curve" smooth="yes"/>
      <point x="1336" y="-22"/>
      <point x="1463" y="92"/>
      <point x="1463" y="515" type="curve" smooth="yes"/>
      <point x="1463" y="733" type="line"/>
      <point x="1612" y="733" type="line"/>
      <point x="1612" y="920" type="line"/>
      <point x="1463" y="920" type="line"/>
      <point x="1463" y="1056" type="line"/>
      <point x="954" y="1056" type="line"/>
      <point x="954" y="920" type="line"/>
      <point x="812" y="920" type="line" smooth="yes"/>
      <point x="803" y="920"/>
      <point x="703" y="924"/>
      <point x="703" y="946" type="curve" smooth="yes"/>
      <point x="703" y="1354" type="line" smooth="yes"/>
      <point x="703" y="1370"/>
      <point x="803" y="1375"/>
      <point x="826" y="1375" type="curve" smooth="yes"/>
      <point x="841" y="1375"/>
      <point x="942" y="1375"/>
      <point x="947" y="1372" type="curve" smooth="yes"/>
      <point x="951" y="1370"/>
      <point x="952" y="1214"/>
      <point x="952" y="1206" type="curve"/>
      <point x="1461" y="1226" type="line"/>
      <point x="1461" y="1267" type="line" smooth="yes"/>
      <point x="1461" y="1530"/>
      <point x="1271" y="1608"/>
      <point x="841" y="1608" type="curve" smooth="yes"/>
      <point x="431" y="1608"/>
      <point x="141" y="1564"/>
      <point x="141" y="1191" type="curve" smooth="yes"/>
      <point x="141" y="963"/>
      <point x="230" y="887"/>
      <point x="295" y="871" type="curve" smooth="yes"/>
      <point x="297" y="870"/>
      <point x="401" y="852"/>
      <point x="403" y="851" type="curve"/>
      <point x="403" y="831" type="line"/>
      <point x="400" y="831"/>
      <point x="297" y="813"/>
      <point x="295" y="812" type="curve" smooth="yes"/>
      <point x="177" y="789"/>
      <point x="135" y="587"/>
      <point x="135" y="465" type="curve" smooth="yes"/>
      <point x="135" y="41"/>
      <point x="400" y="-22"/>
    </contour>
    <contour>
      <point x="825" y="232" type="curve" smooth="yes"/>
      <point x="798" y="232"/>
      <point x="697" y="239"/>
      <point x="697" y="256" type="curve" smooth="yes"/>
      <point x="697" y="279"/>
      <point x="697" y="733"/>
      <point x="712" y="733" type="curve" smooth="yes"/>
      <point x="954" y="733" type="line"/>
      <point x="954" y="254" type="line" smooth="yes"/>
      <point x="954" y="239"/>
      <point x="857" y="232"/>
    </contour>
  </outline>
</glyph>
<glyph name="parenright" format="1">
  <advance width="1188"/>
  <unicode hex="0029"/>
  <outline>
    <contour>
      <point x="242" y="-175" type="line"/>
      <point x="748" y="-172"/>
      <point x="943" y="315"/>
      <point x="943" y="817" type="curve"/>
      <point x="943" y="1319"/>
      <point x="748" y="1822"/>
      <point x="242" y="1825" type="curve"/>
      <point x="241" y="1561" type="line"/>
      <point x="471" y="1557"/>
      <point x="562" y="1189"/>
      <point x="562" y="817" type="curve" smooth="yes"/>
      <point x="562" y="446"/>
      <point x="471" y="94"/>
      <point x="241" y="90" type="curve"/>
    </contour>
  </outline>
</glyph>
<glyph name="asterisk" format="1">
  <advance width="1392"/>
  <unicode hex="002A"/>
  <outline>
    <contour>
      <point x="481" y="444" type="curve" smooth="yes"/>
      <point x="599" y="444"/>
      <point x="623" y="610"/>
      <point x="691" y="855" type="curve"/>
      <point x="728" y="718"/>
      <point x="766" y="562"/>
      <point x="804" y="501" type="curve" smooth="yes"/>
      <point x="878" y="378"/>
      <point x="1061" y="473"/>
      <point x="1061" y="589" type="curve" smooth="yes"/>
      <point x="1061" y="661"/>
      <point x="938" y="770"/>
      <point x="793" y="909" type="curve"/>
      <point x="924" y="873"/>
      <point x="1073" y="827"/>
      <point x="1143" y="827" type="curve" smooth="yes"/>
      <point x="1228" y="827"/>
      <point x="1267" y="895"/>
      <point x="1267" y="966" type="curve" smooth="yes"/>
      <point x="1267" y="1040"/>
      <point x="1225" y="1110"/>
      <point x="1144" y="1110" type="curve" smooth="yes"/>
      <point x="1072" y="1110"/>
      <point x="932" y="1065"/>
      <point x="793" y="1026" type="curve"/>
      <point x="945" y="1175"/>
      <point x="1060" y="1277"/>
      <point x="1060" y="1351" type="curve" smooth="yes"/>
      <point x="1060" y="1464"/>
      <point x="876" y="1546"/>
      <point x="808" y="1440" type="curve" smooth="yes"/>
      <point x="761" y="1382"/>
      <point x="725" y="1204"/>
      <point x="691" y="1074" type="curve"/>
      <point x="654" y="1218"/>
      <point x="617" y="1382"/>
      <point x="573" y="1440" type="curve" smooth="yes"/>
      <point x="502" y="1549"/>
      <point x="320" y="1463"/>
      <point x="320" y="1350" type="curve" smooth="yes"/>
      <point x="320" y="1278"/>
      <point x="438" y="1173"/>
      <point x="588" y="1026" type="curve"/>
      <point x="460" y="1062"/>
      <point x="310" y="1110"/>
      <point x="238" y="1110" type="curve" smooth="yes"/>
      <point x="157" y="1110"/>
      <point x="115" y="1040"/>
      <point x="115" y="966" type="curve" smooth="yes"/>
      <point x="115" y="895"/>
      <point x="154" y="827"/>
      <point x="237" y="827" type="curve" smooth="yes"/>
      <point x="307" y="827"/>
      <point x="453" y="871"/>
      <point x="588" y="909" type="curve"/>
      <point x="446" y="773"/>
      <point x="321" y="666"/>
      <point x="321" y="588" type="curve" smooth="yes"/>
      <point x="321" y="513"/>
      <point x="403" y="444"/>
    </contour>
  </outline>
</glyph>
<glyph name="hyphen" format="1">
  <advance width="1285"/>
  <unicode hex="002D"/>
  <outline>
    <contour>
      <point x="667" y="647" type="move" name="_mid"/>
    </contour>
    <contour>
      <point x="224" y="509" type="line"/>
      <point x="1057" y="509" type="line"/>
      <point x="1057" y="787" type="line"/>
      <point x="224" y="787" type="line"/>
    </contour>
  </outline>
</glyph>
<glyph name="period" format="1">
  <advance width="937"/>
  <unicode hex="002E"/>
  <outline>
    <contour>
      <point x="463" y="-38" type="curve" smooth="yes"/>
      <point x="561" y="-38"/>
      <point x="660" y="30"/>
      <point x="660" y="166" type="curve" smooth="yes"/>
      <point x="660" y="301"/>
      <point x="561" y="369"/>
      <point x="462" y="369" type="curve" smooth="yes"/>
      <point x="363" y="369"/>
      <point x="265" y="302"/>
      <point x="265" y="166" type="curve" smooth="yes"/>
      <point x="265" y="30"/>
      <point x="364" y="-38"/>
    </contour>
  </outline>
</glyph>
<glyph name="two" format="1">
  <advance width="1508"/>
  <unicode hex="0032"/>
  <outline>
    <contour>
      <point x="166" y="1" type="line"/>
      <point x="1332" y="1" type="line"/>
      <point x="1332" y="286" type="line"/>
      <point x="681" y="286" type="line"/>
      <point x="681" y="416"/>
      <point x="796" y="483"/>
      <point x="912" y="542" type="curve" smooth="yes"/>
      <point x="1136" y="654"/>
      <point x="1399" y="773"/>
      <point x="1399" y="1122" type="curve" smooth="yes"/>
      <point x="1399" y="1492"/>
      <point x="1198" y="1620"/>
      <point x="786" y="1620" type="curve" smooth="yes"/>
      <point x="421" y="1620"/>
      <point x="165" y="1525"/>
      <point x="165" y="1130" type="curve" smooth="yes"/>
      <point x="166" y="1074" type="line"/>
      <point x="679" y="1070" type="line"/>
      <point x="680" y="1081"/>
      <point x="680" y="1351"/>
      <point x="685" y="1355" type="curve" smooth="yes"/>
      <point x="689" y="1358"/>
      <point x="767" y="1359"/>
      <point x="777" y="1359" type="curve" smooth="yes"/>
      <point x="789" y="1359"/>
      <point x="864" y="1357"/>
      <point x="867" y="1353" type="curve" smooth="yes"/>
      <point x="870" y="1348"/>
      <point x="871" y="1097"/>
      <point x="871" y="1087" type="curve" smooth="yes"/>
      <point x="871" y="971"/>
      <point x="757" y="923"/>
      <point x="647" y="866" type="curve" smooth="yes"/>
      <point x="370" y="734"/>
      <point x="166" y="585"/>
      <point x="166" y="194" type="curve" smooth="yes"/>
    </contour>
  </outline>
</glyph>
<glyph name="eight" format="1">
  <advance width="1508"/>
  <unicode hex="0038"/>
  <outline>
    <contour>
      <point x="752" y="-22" type="curve" smooth="yes"/>
      <point x="1208" y="-22"/>
      <point x="1426" y="55"/>
      <point x="1426" y="413" type="curve" smooth="yes"/>
      <point x="1426" y="714"/>
      <point x="1353" y="776"/>
      <point x="1185" y="848" type="curve"/>
      <point x="1306" y="898"/>
      <point x="1338" y="1015"/>
      <point x="1338" y="1199" type="curve" smooth="yes"/>
      <point x="1338" y="1511"/>
      <point x="1192" y="1606"/>
      <point x="751" y="1606" type="curve" smooth="yes"/>
      <point x="302" y="1606"/>
      <point x="157" y="1511"/>
      <point x="157" y="1199" type="curve" smooth="yes"/>
      <point x="157" y="1015"/>
      <point x="188" y="898"/>
      <point x="308" y="848" type="curve"/>
      <point x="140" y="776"/>
      <point x="69" y="714"/>
      <point x="69" y="413" type="curve" smooth="yes"/>
      <point x="69" y="54"/>
      <point x="288" y="-22"/>
    </contour>
    <contour>
      <point x="751" y="236" type="curve" smooth="yes"/>
      <point x="575" y="236"/>
      <point x="557" y="290"/>
      <point x="557" y="423" type="curve" smooth="yes"/>
      <point x="557" y="489" type="line" smooth="yes"/>
      <point x="557" y="697"/>
      <point x="619" y="699"/>
      <point x="752" y="699" type="curve" smooth="yes"/>
      <point x="878" y="699"/>
      <point x="940" y="696"/>
      <point x="940" y="489" type="curve" smooth="yes"/>
      <point x="940" y="423" type="line" smooth="yes"/>
      <point x="940" y="290"/>
      <point x="921" y="236"/>
    </contour>
    <contour>
      <point x="683" y="910" type="line"/>
      <point x="614" y="972"/>
      <point x="608" y="1045"/>
      <point x="608" y="1182" type="curve" smooth="yes"/>
      <point x="608" y="1332"/>
      <point x="656" y="1346"/>
      <point x="752" y="1346" type="curve" smooth="yes"/>
      <point x="841" y="1346"/>
      <point x="889" y="1331"/>
      <point x="889" y="1182" type="curve" smooth="yes"/>
      <point x="889" y="1035"/>
      <point x="873" y="972"/>
      <point x="804" y="910" type="curve"/>
    </contour>
  </outline>
</glyph>
<glyph name="nine" format="1">
  <advance width="1508"/>
  <unicode hex="0039"/>
  <outline>
    <contour>
      <point x="771" y="-37" type="curve" smooth="yes"/>
      <point x="1205" y="-37"/>
      <point x="1389" y="92"/>
      <point x="1389" y="537" type="curve" smooth="yes"/>
      <point x="1389" y="1090" type="line" smooth="yes"/>
      <point x="1389" y="1497"/>
      <point x="1245" y="1616"/>
      <point x="757" y="1616" type="curve" smooth="yes"/>
      <point x="362" y="1616"/>
      <point x="121" y="1536"/>
      <point x="121" y="1064" type="curve" smooth="yes"/>
      <point x="121" y="680"/>
      <point x="234" y="511"/>
      <point x="628" y="511" type="curve" smooth="yes"/>
      <point x="647" y="511"/>
      <point x="859" y="515"/>
      <point x="864" y="522" type="curve"/>
      <point x="864" y="237" type="line" smooth="yes"/>
      <point x="864" y="220"/>
      <point x="787" y="215"/>
      <point x="763" y="215" type="curve" smooth="yes"/>
      <point x="751" y="215"/>
      <point x="668" y="215"/>
      <point x="665" y="218" type="curve" smooth="yes"/>
      <point x="662" y="221"/>
      <point x="662" y="405"/>
      <point x="662" y="415" type="curve"/>
      <point x="168" y="396" type="line"/>
      <point x="166" y="317" type="line" smooth="yes"/>
      <point x="158" y="1"/>
      <point x="475" y="-37"/>
    </contour>
    <contour>
      <point x="753" y="770" type="curve" smooth="yes"/>
      <point x="723" y="770"/>
      <point x="644" y="775"/>
      <point x="644" y="797" type="curve" smooth="yes"/>
      <point x="644" y="1338" type="line" smooth="yes"/>
      <point x="644" y="1353"/>
      <point x="724" y="1359"/>
      <point x="754" y="1359" type="curve" smooth="yes"/>
      <point x="783" y="1359"/>
      <point x="861" y="1351"/>
      <point x="861" y="1334" type="curve" smooth="yes"/>
      <point x="861" y="797" type="line" smooth="yes"/>
      <point x="861" y="779"/>
      <point x="785" y="770"/>
    </contour>
  </outline>
</glyph>
<glyph name="colon" format="1">
  <advance width="940"/>
  <unicode hex="003A"/>
  <outline>
    <contour>
      <point x="464" y="115" type="curve" smooth="yes"/>
      <point x="563" y="115"/>
      <point x="662" y="183"/>
      <point x="662" y="320" type="curve" smooth="yes"/>
      <point x="662" y="456"/>
      <point x="563" y="524"/>
      <point x="464" y="524" type="curve" smooth="yes"/>
      <point x="365" y="524"/>
      <point x="267" y="456"/>
      <point x="267" y="320" type="curve" smooth="yes"/>
      <point x="267" y="183"/>
      <point x="365" y="115"/>
    </contour>
    <contour>
      <point x="464" y="923" type="curve" smooth="yes"/>
      <point x="563" y="923"/>
      <point x="662" y="991"/>
      <point x="662" y="1128" type="curve" smooth="yes"/>
      <point x="662" y="1264"/>
      <point x="563" y="1332"/>
      <point x="464" y="1332" type="curve" smooth="yes"/>
      <point x="365" y="1332"/>
      <point x="267" y="1264"/>
      <point x="267" y="1128" type="curve" smooth="yes"/>
      <point x="267" y="991"/>
      <point x="366" y="923"/>
    </contour>
  </outline>
</glyph>
<glyph name="semicolon" format="1">
  <advance width="996"/>
  <unicode hex="003B"/>
  <outline>
    <contour>
      <point x="358" y="-118" type="curve" smooth="yes"/>
      <point x="571" y="-118"/>
      <point x="696" y="98"/>
      <point x="696" y="281" type="curve" smooth="yes"/>
      <point x="696" y="406"/>
      <point x="631" y="515"/>
      <point x="493" y="515" type="curve" smooth="yes"/>
      <point x="392" y="515"/>
      <point x="295" y="447"/>
      <point x="295" y="319" type="curve" smooth="yes"/>
      <point x="295" y="195"/>
      <point x="378" y="125"/>
      <point x="470" y="116" type="curve"/>
      <point x="465" y="37"/>
      <point x="394" y="-9"/>
      <point x="313" y="-10" type="curve"/>
      <point x="313" y="-115" type="line"/>
      <point x="327" y="-117"/>
      <point x="343" y="-118"/>
    </contour>
    <contour>
      <point x="493" y="923" type="curve" smooth="yes"/>
      <point x="594" y="923"/>
      <point x="691" y="993"/>
      <point x="691" y="1128" type="curve" smooth="yes"/>
      <point x="691" y="1262"/>
      <point x="593" y="1332"/>
      <point x="493" y="1332" type="curve" smooth="yes"/>
      <point x="392" y="1332"/>
      <point x="295" y="1262"/>
      <point x="295" y="1128" type="curve" smooth="yes"/>
      <point x="295" y="993"/>
      <point x="393" y="923"/>
    </contour>
  </outline>
</glyph>
<glyph name="greater" format="1">
  <advance width="1336"/>
  <unicode hex="003E"/>
  <outline>
    <contour>
      <point x="258" y="23" type="line"/>
      <point x="1116" y="444" type="line"/>
      <point x="1116" y="1008" type="line"/>
      <point x="258" y="1430" type="line"/>
      <point x="258" y="952" type="line"/>
      <point x="851" y="730" type="line"/>
      <point x="258" y="500" type="line"/>
    </contour>
  </outline>
</glyph>
<glyph name="G" format="1">
  <advance width="1667"/>
  <unicode hex="0047"/>
  <outline>
    <contour>
      <point x="844" y="1585" type="move" name="top"/>
    </contour>
    <contour>
      <point x="844" y="0" type="move" name="bot"/>
    </contour>
    <contour>
      <point x="171" y="1208" type="curve" smooth="yes"/>
      <point x="169" y="1197"/>
      <point x="168" y="809"/>
      <point x="168" y="789" type="curve" smooth="yes"/>
      <point x="168" y="771"/>
      <point x="169" y="371"/>
      <point x="170" y="360" type="curve" smooth="yes"/>
      <point x="174" y="19"/>
      <point x="387" y="-22"/>
      <point x="887" y="-22" type="curve" smooth="yes"/>
      <point x="1062" y="-22"/>
      <point x="1405" y="5"/>
      <point x="1523" y="107" type="curve"/>
      <point x="1523" y="767" type="line"/>
      <point x="895" y="767" type="line"/>
      <point x="897" y="599" type="line"/>
      <point x="1061" y="599" type="line"/>
      <point x="1061" y="236" type="line"/>
      <point x="1059" y="233"/>
      <point x="917" y="231"/>
      <point x="895" y="231" type="curve" smooth="yes"/>
      <point x="862" y="231"/>
      <point x="734" y="235"/>
      <point x="733" y="253" type="curve" smooth="yes"/>
      <point x="733" y="267"/>
      <point x="732" y="780"/>
      <point x="732" y="795" type="curve" smooth="yes"/>
      <point x="732" y="808"/>
      <point x="732" y="1309"/>
      <point x="733" y="1323" type="curve" smooth="yes"/>
      <point x="734" y="1336"/>
      <point x="818" y="1340"/>
      <point x="845" y="1340" type="curve" smooth="yes"/>
      <point x="870" y="1340"/>
      <point x="956" y="1339"/>
      <point x="956" y="1330" type="curve" smooth="yes"/>
      <point x="958" y="969" type="line"/>
      <point x="1520" y="990" type="line"/>
      <point x="1520" y="992"/>
      <point x="1520" y="1199"/>
      <point x="1520" y="1201" type="curve" smooth="yes"/>
      <point x="1520" y="1566"/>
      <point x="1113" y="1606"/>
      <point x="849" y="1606" type="curve" smooth="yes"/>
      <point x="540" y="1606"/>
      <point x="177" y="1568"/>
    </contour>
  </outline>
</glyph>
<glyph name="K" format="1">
  <advance width="1748"/>
  <unicode hex="004B"/>
  <outline>
    <contour>
      <point x="896" y="1585" type="move" name="top"/>
    </contour>
    <contour>
      <point x="896" y="0" type="move" name="bot"/>
    </contour>
    <contour>
      <point x="1069" y="1585" type="line"/>
      <point x="815" y="986" type="line"/>
      <point x="746" y="822" type="line"/>
      <point x="748" y="1005" type="line"/>
      <point x="748" y="1585" type="line"/>
      <point x="183" y="1585" type="line"/>
      <point x="183" y="0" type="line"/>
      <point x="748" y="0" type="line"/>
      <point x="748" y="567" type="line"/>
      <point x="809" y="694" type="line"/>
      <point x="1092" y="0" type="line"/>
      <point x="1700" y="0" type="line"/>
      <point x="1301" y="834" type="line"/>
      <point x="1651" y="1585" type="line"/>
    </contour>
  </outline>
</glyph>
<glyph name="O" format="1">
  <advance width="1696"/>
  <unicode hex="004F"/>
  <outline>
    <contour>
      <point x="848" y="1585" type="move" name="top"/>
    </contour>
    <contour>
      <point x="974" y="0" type="move" name="ogonek"/>
    </contour>
    <contour>
      <point x="848" y="0" type="move" name="bot"/>
    </contour>
    <contour>
      <point x="849" y="240" type="curve" smooth="yes"/>
      <point x="816" y="240"/>
      <point x="734" y="245"/>
      <point x="734" y="267" type="curve" smooth="yes"/>
      <point x="733" y="276"/>
      <point x="733" y="777"/>
      <point x="733" y="793" type="curve" smooth="yes"/>
      <point x="733" y="810"/>
      <point x="733" y="1310"/>
      <point x="734" y="1319" type="curve" smooth="yes"/>
      <point x="734" y="1341"/>
      <point x="816" y="1345"/>
      <point x="849" y="1345" type="curve" smooth="yes"/>
      <point x="882" y="1345"/>
      <point x="963" y="1341"/>
      <point x="963" y="1319" type="curve" smooth="yes"/>
      <point x="964" y="1310"/>
      <point x="964" y="810"/>
      <point x="964" y="793" type="curve" smooth="yes"/>
      <point x="964" y="777"/>
      <point x="964" y="276"/>
      <point x="963" y="267" type="curve" smooth="yes"/>
      <point x="963" y="245"/>
      <point x="882" y="240"/>
    </contour>
    <contour>
      <point x="845" y="-22" type="curve" smooth="yes"/>
      <point x="1167" y="-21"/>
      <point x="1528" y="20"/>
      <point x="1528" y="417" type="curve" smooth="yes"/>
      <point x="1528" y="1168" type="line" smooth="yes"/>
      <point x="1528" y="1563"/>
      <point x="1140" y="1606"/>
      <point x="845" y="1606" type="curve" smooth="yes"/>
      <point x="525" y="1606"/>
      <point x="168" y="1558"/>
      <point x="168" y="1168" type="curve" smooth="yes"/>
      <point x="168" y="417" type="line" smooth="yes"/>
      <point x="168" y="18"/>
      <point x="507" y="-22"/>
    </contour>
  </outline>
</glyph>
<glyph name="S" format="1">
  <advance width="1637"/>
  <unicode hex="0053"/>
  <outline>
    <contour>
      <point x="809" y="1585" type="move" name="top"/>
    </contour>
    <contour>
      <point x="809" y="0" type="move" name="bot"/>
    </contour>
    <contour>
      <point x="817" y="-22" type="curve" smooth="yes"/>
      <point x="1330" y="-22"/>
      <point x="1479" y="90"/>
      <point x="1479" y="532" type="curve" smooth="yes"/>
      <point x="1479" y="861"/>
      <point x="1272" y="964"/>
      <point x="1023" y="1012" type="curve" smooth="yes"/>
      <point x="821" y="1050" type="line"/>
      <point x="707" y="1072"/>
      <point x="702" y="1085"/>
      <point x="700" y="1123" type="curve" smooth="yes"/>
      <point x="697" y="1126"/>
      <point x="695" y="1308"/>
      <point x="695" y="1315" type="curve" smooth="yes"/>
      <point x="695" y="1336"/>
      <point x="776" y="1340"/>
      <point x="805" y="1340" type="curve" smooth="yes"/>
      <point x="819" y="1340"/>
      <point x="903" y="1339"/>
      <point x="906" y="1336" type="curve" smooth="yes"/>
      <point x="910" y="1333"/>
      <point x="909" y="1197"/>
      <point x="910" y="1188" type="curve"/>
      <point x="1410" y="1219" type="line"/>
      <point x="1410" y="1577"/>
      <point x="1233" y="1606"/>
      <point x="789" y="1606" type="curve" smooth="yes"/>
      <point x="331" y="1606"/>
      <point x="156" y="1523"/>
      <point x="156" y="1108" type="curve" smooth="yes"/>
      <point x="156" y="825"/>
      <point x="277" y="722"/>
      <point x="532" y="657" type="curve" smooth="yes"/>
      <point x="784" y="595" type="line"/>
      <point x="885" y="568"/>
      <point x="906" y="558"/>
      <point x="906" y="511" type="curve" smooth="yes"/>
      <point x="912" y="510"/>
      <point x="913" y="284"/>
      <point x="913" y="268" type="curve" smooth="yes"/>
      <point x="913" y="245"/>
      <point x="833" y="241"/>
      <point x="804" y="241" type="curve" smooth="yes"/>
      <point x="788" y="241"/>
      <point x="702" y="243"/>
      <point x="698" y="247" type="curve" smooth="yes"/>
      <point x="695" y="251"/>
      <point x="695" y="452"/>
      <point x="694" y="463" type="curve"/>
      <point x="159" y="424" type="line"/>
      <point x="161" y="24"/>
      <point x="332" y="-22"/>
    </contour>
  </outline>
</glyph>
<glyph name="U" format="1">
  <advance width="1666"/>
  <unicode hex="0055"/>
  <outline>
    <contour>
      <point x="833" y="1585" type="move" name="top"/>
    </contour>
    <contour>
      <point x="950" y="0" type="move" name="ogonek"/>
    </contour>
    <contour>
      <point x="833" y="0" type="move" name="bot"/>
    </contour>
    <contour>
      <point x="155" y="1585" type="line"/>
      <point x="155" y="390" type="line" smooth="yes"/>
      <point x="155" y="1"/>
      <point x="540" y="-38"/>
      <point x="831" y="-38" type="curve" smooth="yes"/>
      <point x="1147" y="-38"/>
      <point x="1511" y="5"/>
      <point x="1511" y="389" type="curve" smooth="yes"/>
      <point x="1511" y="1584" type="line"/>
      <point x="947" y="1584" type="line"/>
      <point x="947" y="254" type="line" smooth="yes"/>
      <point x="947" y="229"/>
      <point x="865" y="224"/>
      <point x="833" y="224" type="curve" smooth="yes"/>
      <point x="797" y="224"/>
      <point x="719" y="228"/>
      <point x="719" y="264" type="curve" smooth="yes"/>
      <point x="719" y="1585" type="line"/>
    </contour>
  </outline>
</glyph>
<glyph name="V" format="1">
  <advance width="1597"/>
  <unicode hex="0056"/>
  <outline>
    <contour>
      <point x="967" y="1585" type="line"/>
      <point x="804" y="397" type="line"/>
      <point x="794" y="397" type="line"/>
      <point x="622" y="1585" type="line"/>
      <point x="69" y="1585" type="line"/>
      <point x="406" y="0" type="line"/>
      <point x="1185" y="0" type="line"/>
      <point x="1522" y="1585" type="line"/>
    </contour>
  </outline>
</glyph>
<glyph name="Z" format="1">
  <advance width="1265"/>
  <unicode hex="005A"/>
  <outline>
    <contour>
      <point x="635" y="1585" type="move" name="top"/>
    </contour>
    <contour>
      <point x="635" y="0" type="move" name="bot"/>
    </contour>
    <contour>
      <point x="153" y="1585" type="line"/>
      <point x="169" y="1307" type="line"/>
      <point x="555" y="1307" type="line"/>
      <point x="173" y="257" type="line"/>
      <point x="174" y="0" type="line"/>
      <point x="1142" y="0" type="line"/>
      <point x="1151" y="280" type="line"/>
      <point x="744" y="280" type="line"/>
      <point x="1102" y="1339" type="line"/>
      <point x="1107" y="1585" type="line"/>
    </contour>
  </outline>
</glyph>
<glyph name="bracketleft" format="1">
  <advance width="1256"/>
  <unicode hex="005B"/>
  <outline>
    <contour>
      <point x="236" y="1801" type="line"/>
      <point x="236" y="-314" type="line"/>
      <point x="1158" y="-314" type="line"/>
      <point x="1158" y="-81" type="line"/>
      <point x="826" y="-81" type="line"/>
      <point x="826" y="1569" type="line"/>
      <point x="1158" y="1569" type="line"/>
      <point x="1158" y="1801" type="line"/>
    </contour>
  </outline>
</glyph>
<glyph name="backslash" format="1">
  <advance width="1192"/>
  <unicode hex="005C"/>
  <outline>
    <contour>
      <point x="186" y="1587" type="line"/>
      <point x="538" y="-3" type="line"/>
      <point x="984" y="-3" type="line"/>
      <point x="633" y="1587" type="line"/>
    </contour>
  </outline>
</glyph>
<glyph name="h" format="1">
  <advance width="1601"/>
  <unicode hex="0068"/>
  <outline>
    <contour>
      <point x="1050" y="1529" type="move" name="top"/>
    </contour>
    <contour>
      <point x="796" y="0" type="move" name="bot"/>
    </contour>
    <contour>
      <point x="796" y="1280" type="move" name="mid"/>
    </contour>
    <contour>
      <point x="796" y="640" type="move" name="center"/>
    </contour>
    <contour>
      <point x="174" y="1627" type="line"/>
      <point x="174" y="0" type="line"/>
      <point x="707" y="0" type="line"/>
      <point x="707" y="1082" type="line" smooth="yes"/>
      <point x="707" y="1089"/>
      <point x="796" y="1092"/>
      <point x="806" y="1092" type="curve" smooth="yes"/>
      <point x="830" y="1092"/>
      <point x="906" y="1089"/>
      <point x="906" y="1060" type="curve" smooth="yes"/>
      <point x="906" y="0" type="line"/>
      <point x="1439" y="0" type="line"/>
      <point x="1439" y="923" type="line" smooth="yes"/>
      <point x="1439" y="1181"/>
      <point x="1303" y="1302"/>
      <point x="1026" y="1302" type="curve" smooth="yes"/>
      <point x="891" y="1302"/>
      <point x="763" y="1267"/>
      <point x="707" y="1189" type="curve"/>
      <point x="707" y="1627" type="line"/>
    </contour>
  </outline>
</glyph>
<glyph name="i" format="1">
  <advance width="942"/>
  <unicode hex="0069"/>
  <outline>
    <contour>
      <point x="292" y="0" type="move" name="ogonek"/>
    </contour>
    <component base="dotlessi"/>
    <component base="dotaccent" xOffset="-135"/>
  </outline>
</glyph>
<glyph name="k" format="1">
  <advance width="1580"/>
  <unicode hex="006B"/>
  <outline>
    <contour>
      <point x="1081" y="1480" type="move" name="top"/>
    </contour>
    <contour>
      <point x="805" y="0" type="move" name="bot"/>
    </contour>
    <contour>
      <point x="804" y="0" type="move" name="bottom"/>
    </contour>
    <contour>
      <point x="174" y="1627" type="line"/>
      <point x="174" y="0" type="line"/>
      <point x="707" y="0" type="line"/>
      <point x="707" y="477" type="line"/>
      <point x="755" y="557" type="line"/>
      <point x="999" y="0" type="line"/>
      <point x="1588" y="0" type="line"/>
      <point x="1208" y="687" type="line"/>
      <point x="1560" y="1280" type="line"/>
      <point x="1010" y="1280" type="line"/>
      <point x="793" y="927" type="line" smooth="yes"/>
      <point x="787" y="921"/>
      <point x="713" y="787"/>
      <point x="707" y="781" type="curve"/>
      <point x="707" y="786"/>
      <point x="707" y="954"/>
      <point x="707" y="959" type="curve" smooth="yes"/>
      <point x="707" y="1627" type="line"/>
    </contour>
  </outline>
</glyph>
<glyph name="n" format="1">
  <advance width="1593"/>
  <unicode hex="006E"/>
  <outline>
    <contour>
      <point x="792" y="1280" type="move" name="top"/>
    </contour>
    <contour>
      <point x="792" y="0" type="move" name="bot"/>
    </contour>
    <contour>
      <point x="686" y="1167" type="curve"/>
      <point x="651" y="1280" type="line"/>
      <point x="174" y="1280" type="line"/>
      <point x="174" y="0" type="line"/>
      <point x="707" y="0" type="line"/>
      <point x="707" y="1073" type="line" smooth="yes"/>
      <point x="707" y="1087"/>
      <point x="787" y="1092"/>
      <point x="811" y="1092" type="curve" smooth="yes"/>
      <point x="827" y="1092"/>
      <point x="905" y="1085"/>
      <point x="905" y="1067" type="curve" smooth="yes"/>
      <point x="905" y="0" type="line"/>
      <point x="1438" y="0" type="line"/>
      <point x="1438" y="922" type="line" smooth="yes"/>
      <point x="1438" y="1172"/>
      <point x="1300" y="1301"/>
      <point x="1025" y="1302" type="curve" smooth="yes"/>
      <point x="876" y="1302"/>
      <point x="743" y="1253"/>
    </contour>
  </outline>
</glyph>
<glyph name="p" format="1">
  <advance width="1593"/>
  <unicode hex="0070"/>
  <outline>
    <contour>
      <point x="797" y="1280" type="move" name="top"/>
    </contour>
    <contour>
      <point x="797" y="0" type="move" name="bot"/>
    </contour>
    <contour>
      <point x="174" y="-408" type="line"/>
      <point x="707" y="-406" type="line"/>
      <point x="707" y="88" type="line"/>
      <point x="765" y="9"/>
      <point x="896" y="-22"/>
      <point x="1039" y="-22" type="curve" smooth="yes"/>
      <point x="1321" y="-22"/>
      <point x="1457" y="103"/>
      <point x="1457" y="383" type="curve" smooth="yes"/>
      <point x="1457" y="893" type="line" smooth="yes"/>
      <point x="1457" y="1175"/>
      <point x="1320" y="1302"/>
      <point x="1038" y="1302" type="curve" smooth="yes"/>
      <point x="884" y="1302"/>
      <point x="732" y="1257"/>
      <point x="668" y="1167" type="curve"/>
      <point x="632" y="1280" type="line"/>
      <point x="174" y="1280" type="line"/>
    </contour>
    <contour>
      <point x="808" y="191" type="curve" smooth="yes"/>
      <point x="787" y="191"/>
      <point x="707" y="197"/>
      <point x="707" y="224" type="curve" smooth="yes"/>
      <point x="707" y="1064" type="line" smooth="yes"/>
      <point x="707" y="1089"/>
      <point x="783" y="1092"/>
      <point x="808" y="1092" type="curve" smooth="yes"/>
      <point x="837" y="1092"/>
      <point x="908" y="1081"/>
      <point x="908" y="1068" type="curve" smooth="yes"/>
      <point x="908" y="221" type="line" smooth="yes"/>
      <point x="908" y="194"/>
      <point x="833" y="191"/>
    </contour>
  </outline>
</glyph>
<glyph name="q" format="1">
  <advance width="1592"/>
  <unicode hex="0071"/>
  <outline>
    <contour>
      <point x="138" y="893" type="curve" smooth="yes"/>
      <point x="138" y="383" type="line" smooth="yes"/>
      <point x="138" y="103"/>
      <point x="274" y="-22"/>
      <point x="571" y="-22" type="curve" smooth="yes"/>
      <point x="713" y="-22"/>
      <point x="831" y="10"/>
      <point x="888" y="89" type="curve"/>
      <point x="888" y="-406" type="line"/>
      <point x="1422" y="-408" type="line"/>
      <point x="1422" y="1280" type="line"/>
      <point x="963" y="1280" type="line"/>
      <point x="928" y="1167" type="line"/>
      <point x="863" y="1257"/>
      <point x="726" y="1302"/>
      <point x="572" y="1302" type="curve" smooth="yes"/>
      <point x="275" y="1302"/>
      <point x="138" y="1175"/>
    </contour>
    <contour>
      <point x="787" y="191" type="curve" smooth="yes"/>
      <point x="762" y="191"/>
      <point x="687" y="194"/>
      <point x="687" y="221" type="curve" smooth="yes"/>
      <point x="687" y="1069" type="line" smooth="yes"/>
      <point x="687" y="1081"/>
      <point x="759" y="1092"/>
      <point x="787" y="1092" type="curve" smooth="yes"/>
      <point x="812" y="1092"/>
      <point x="889" y="1089"/>
      <point x="889" y="1064" type="curve" smooth="yes"/>
      <point x="889" y="224" type="line" smooth="yes"/>
      <point x="889" y="197"/>
      <point x="809" y="191"/>
    </contour>
  </outline>
</glyph>
<glyph name="t" format="1">
  <advance width="1087"/>
  <unicode hex="0074"/>
  <outline>
    <contour>
      <point x="523" y="1560" type="move" name="top"/>
    </contour>
    <contour>
      <point x="542" y="1296" type="move" name="caron.alt"/>
    </contour>
    <contour>
      <point x="568" y="0" type="move" name="bot"/>
    </contour>
    <contour>
      <point x="524" y="745" type="move" name="mid"/>
    </contour>
    <contour>
      <point x="242" y="1580" type="line"/>
      <point x="242" y="1280" type="line"/>
      <point x="102" y="1280" type="line"/>
      <point x="102" y="1089" type="line"/>
      <point x="242" y="1089" type="line"/>
      <point x="242" y="356" type="line" smooth="yes"/>
      <point x="242" y="47"/>
      <point x="391" y="-15"/>
      <point x="775" y="-15" type="curve" smooth="yes"/>
      <point x="881" y="-15"/>
      <point x="977" y="2"/>
      <point x="985" y="3" type="curve"/>
      <point x="986" y="224" type="line"/>
      <point x="867" y="221"/>
      <point x="775" y="239"/>
      <point x="775" y="328" type="curve" smooth="yes"/>
      <point x="775" y="1089" type="line"/>
      <point x="941" y="1089" type="line"/>
      <point x="941" y="1280" type="line"/>
      <point x="775" y="1280" type="line"/>
      <point x="775" y="1580" type="line"/>
    </contour>
  </outline>
</glyph>
<glyph name="z" format="1">
  <advance width="1251"/>
  <unicode hex="007A"/>
  <outline>
    <contour>
      <point x="630" y="1280" type="move" name="top"/>
    </contour>
    <contour>
      <point x="635" y="0" type="move" name="bot"/>
    </contour>
    <contour>
      <point x="188" y="1280" type="line"/>
      <point x="199" y="1042" type="line"/>
      <point x="546" y="1042" type="line"/>
      <point x="168" y="224" type="line"/>
      <point x="191" y="0" type="line"/>
      <point x="1120" y="0" type="line"/>
      <point x="1135" y="235" type="line"/>
      <point x="750" y="235" type="line"/>
      <point x="1120" y="1067" type="line"/>
      <point x="1099" y="1280" type="line"/>
    </contour>
  </outline>
</glyph>
<glyph name="braceleft" format="1">
  <advance width="1248"/>
  <unicode hex="007B"/>
  <outline>
    <contour>
      <point x="1141" y="-318" type="curve"/>
      <point x="1141" y="-55" type="line"/>
      <point x="817" y="-55"/>
      <point x="798" y="9"/>
      <point x="798" y="302" type="curve" smooth="yes"/>
      <point x="798" y="624"/>
      <point x="742" y="747"/>
      <point x="581" y="788" type="curve"/>
      <point x="742" y="829"/>
      <point x="798" y="952"/>
      <point x="798" y="1273" type="curve" smooth="yes"/>
      <point x="798" y="1567"/>
      <point x="817" y="1630"/>
      <point x="1141" y="1630" type="curve"/>
      <point x="1141" y="1894" type="line"/>
      <point x="617" y="1894"/>
      <point x="351" y="1787"/>
      <point x="351" y="1218" type="curve" smooth="yes"/>
      <point x="351" y="1007"/>
      <point x="346" y="921"/>
      <point x="156" y="921" type="curve"/>
      <point x="156" y="655" type="line"/>
      <point x="346" y="655"/>
      <point x="351" y="569"/>
      <point x="351" y="358" type="curve" smooth="yes"/>
      <point x="351" y="-211"/>
      <point x="617" y="-318"/>
    </contour>
  </outline>
</glyph>
<glyph name="braceright" format="1">
  <advance width="1248"/>
  <unicode hex="007D"/>
  <outline>
    <contour>
      <point x="156" y="-318" type="line"/>
      <point x="679" y="-318"/>
      <point x="945" y="-212"/>
      <point x="946" y="358" type="curve" smooth="yes"/>
      <point x="946" y="569"/>
      <point x="951" y="655"/>
      <point x="1141" y="655" type="curve"/>
      <point x="1141" y="921" type="line"/>
      <point x="951" y="921"/>
      <point x="946" y="1007"/>
      <point x="946" y="1218" type="curve" smooth="yes"/>
      <point x="945" y="1787"/>
      <point x="679" y="1894"/>
      <point x="156" y="1894" type="curve"/>
      <point x="156" y="1630" type="line"/>
      <point x="480" y="1630"/>
      <point x="499" y="1567"/>
      <point x="498" y="1273" type="curve" smooth="yes"/>
      <point x="498" y="952"/>
      <point x="554" y="829"/>
      <point x="716" y="788" type="curve"/>
      <point x="554" y="747"/>
      <point x="498" y="624"/>
      <point x="498" y="302" type="curve" smooth="yes"/>
      <point x="499" y="9"/>
      <point x="480" y="-55"/>
      <point x="156" y="-55" type="curve"/>
    </contour>
  </outline>
</glyph>
<glyph name="asciitilde" format="1">
  <advance width="1543"/>
  <unicode hex="007E"/>
  <outline>
    <contour>
      <point x="1025" y="610" type="curve" smooth="yes"/>
      <point x="1223" y="583"/>
      <point x="1340" y="703"/>
      <point x="1369" y="993" type="curve"/>
      <point x="1214" y="1039" type="line"/>
      <point x="1168" y="935"/>
      <point x="1112" y="883"/>
      <point x="1003" y="909" type="curve" smooth="yes"/>
      <point x="848" y="947"/>
      <point x="733" y="1098"/>
      <point x="516" y="1067" type="curve" smooth="yes"/>
      <point x="370" y="1046"/>
      <point x="281" y="973"/>
      <point x="225" y="712" type="curve"/>
      <point x="348" y="643" type="line"/>
      <point x="388" y="763"/>
      <point x="454" y="793"/>
      <point x="537" y="784" type="curve" smooth="yes"/>
      <point x="708" y="765"/>
      <point x="832" y="637"/>
    </contour>
  </outline>
</glyph>
<glyph name="cent" format="1">
  <advance width="1671"/>
  <unicode hex="00A2"/>
  <outline>
    <contour>
      <point x="768" y="1837" type="line"/>
      <point x="768" y="1528" type="line"/>
      <point x="931" y="1528" type="line"/>
      <point x="931" y="1837" type="line"/>
    </contour>
    <contour>
      <point x="770" y="42" type="line"/>
      <point x="770" y="-264" type="line"/>
      <point x="933" y="-264" type="line"/>
      <point x="933" y="42" type="line"/>
    </contour>
    <component base="C"/>
  </outline>
</glyph>
<glyph name="sterling" format="1">
  <advance width="1691"/>
  <unicode hex="00A3"/>
  <outline>
    <contour>
      <point x="123" y="0" type="line"/>
      <point x="124" y="0"/>
      <point x="330" y="0"/>
      <point x="331" y="0" type="curve" smooth="yes"/>
      <point x="550" y="3"/>
      <point x="688" y="24"/>
      <point x="782" y="131" type="curve"/>
      <point x="837" y="66"/>
      <point x="947" y="0"/>
      <point x="1113" y="0" type="curve" smooth="yes"/>
      <point x="1413" y="0"/>
      <point x="1545" y="102"/>
      <point x="1546" y="366" type="curve" smooth="yes"/>
      <point x="1548" y="550" type="line"/>
      <point x="1009" y="551" type="line"/>
      <point x="1008" y="265" type="line" smooth="yes"/>
      <point x="1007" y="258"/>
      <point x="938" y="257"/>
      <point x="922" y="257" type="curve" smooth="yes"/>
      <point x="893" y="257"/>
      <point x="827" y="260"/>
      <point x="827" y="266" type="curve" smooth="yes"/>
      <point x="827" y="716" type="line"/>
      <point x="1261" y="716" type="line"/>
      <point x="1261" y="930" type="line"/>
      <point x="827" y="930" type="line"/>
      <point x="827" y="1350" type="line" smooth="yes"/>
      <point x="827" y="1364"/>
      <point x="877" y="1367"/>
      <point x="907" y="1367" type="curve" smooth="yes"/>
      <point x="930" y="1367"/>
      <point x="984" y="1367"/>
      <point x="984" y="1357" type="curve" smooth="yes"/>
      <point x="984" y="1070" type="line"/>
      <point x="1525" y="1071" type="line"/>
      <point x="1524" y="1330" type="line" smooth="yes"/>
      <point x="1524" y="1582"/>
      <point x="1229" y="1623"/>
      <point x="928" y="1623" type="curve" smooth="yes"/>
      <point x="504" y="1623"/>
      <point x="283" y="1547"/>
      <point x="283" y="1141" type="curve" smooth="yes"/>
      <point x="283" y="931" type="line"/>
      <point x="125" y="931" type="line"/>
      <point x="125" y="717" type="line"/>
      <point x="283" y="717" type="line"/>
      <point x="283" y="368" type="line" smooth="yes"/>
      <point x="283" y="287"/>
      <point x="202" y="264"/>
      <point x="125" y="255" type="curve"/>
    </contour>
  </outline>
</glyph>
<glyph name="brokenbar" format="1">
  <advance width="1117"/>
  <unicode hex="00A6"/>
  <outline>
    <contour>
      <point x="288" y="1701" type="line"/>
      <point x="288" y="800" type="line"/>
      <point x="821" y="800" type="line"/>
      <point x="821" y="1701" type="line"/>
    </contour>
    <contour>
      <point x="288" y="647" type="line"/>
      <point x="288" y="-254" type="line"/>
      <point x="821" y="-254" type="line"/>
      <point x="821" y="647" type="line"/>
    </contour>
  </outline>
</glyph>
<glyph name="ordfeminine" format="1">
  <advance width="1553"/>
  <unicode hex="00AA"/>
  <outline>
    <contour>
      <point x="534" y="295" type="curve" smooth="yes"/>
      <point x="697" y="295"/>
      <point x="809" y="355"/>
      <point x="867" y="458" type="curve"/>
      <point x="920" y="321" type="line"/>
      <point x="1375" y="320" type="line"/>
      <point x="1375" y="1236" type="line" smooth="yes"/>
      <point x="1375" y="1565"/>
      <point x="1138" y="1605"/>
      <point x="765" y="1605" type="curve" smooth="yes"/>
      <point x="482" y="1605"/>
      <point x="190" y="1570"/>
      <point x="190" y="1294" type="curve" smooth="yes"/>
      <point x="190" y="1293"/>
      <point x="190" y="1193"/>
      <point x="190" y="1192" type="curve"/>
      <point x="685" y="1210" type="line"/>
      <point x="685" y="1211"/>
      <point x="685" y="1384"/>
      <point x="685" y="1386" type="curve" smooth="yes"/>
      <point x="685" y="1393"/>
      <point x="750" y="1395"/>
      <point x="766" y="1395" type="curve" smooth="yes"/>
      <point x="783" y="1395"/>
      <point x="846" y="1393"/>
      <point x="846" y="1384" type="curve" smooth="yes"/>
      <point x="846" y="1073" type="line"/>
      <point x="844" y="1073"/>
      <point x="629" y="1074"/>
      <point x="626" y="1074" type="curve" smooth="yes"/>
      <point x="320" y="1075"/>
      <point x="128" y="988"/>
      <point x="128" y="698" type="curve" smooth="yes"/>
      <point x="128" y="423"/>
      <point x="256" y="295"/>
    </contour>
    <contour>
      <point x="672" y="510" type="curve" smooth="yes"/>
      <point x="658" y="510"/>
      <point x="658" y="920"/>
      <point x="658" y="936" type="curve" smooth="yes"/>
      <point x="658" y="944"/>
      <point x="813" y="946"/>
      <point x="846" y="947" type="curve"/>
      <point x="846" y="529" type="line" smooth="yes"/>
      <point x="846" y="518"/>
      <point x="694" y="510"/>
    </contour>
  </outline>
</glyph>
<glyph name="guillemotleft" format="1">
  <advance width="1667"/>
  <unicode hex="00AB"/>
  <outline>
    <contour>
      <point x="749" y="196" type="curve" smooth="yes"/>
      <point x="795" y="196"/>
      <point x="829" y="235"/>
      <point x="829" y="281" type="curve" smooth="yes"/>
      <point x="829" y="304"/>
      <point x="823" y="327"/>
      <point x="806" y="348" type="curve"/>
      <point x="464" y="777" type="line"/>
      <point x="806" y="1207" type="line"/>
      <point x="824" y="1231"/>
      <point x="831" y="1253"/>
      <point x="831" y="1274" type="curve" smooth="yes"/>
      <point x="831" y="1322"/>
      <point x="796" y="1359"/>
      <point x="751" y="1359" type="curve" smooth="yes"/>
      <point x="733" y="1359"/>
      <point x="711" y="1353"/>
      <point x="688" y="1336" type="curve" smooth="yes"/>
      <point x="163" y="955" type="line" smooth="yes"/>
      <point x="106" y="913"/>
      <point x="76" y="844"/>
      <point x="75" y="776" type="curve"/>
      <point x="75" y="710"/>
      <point x="104" y="643"/>
      <point x="163" y="600" type="curve" smooth="yes"/>
      <point x="688" y="219" type="line" smooth="yes"/>
      <point x="708" y="203"/>
      <point x="731" y="196"/>
    </contour>
    <contour>
      <point x="1468" y="196" type="curve" smooth="yes"/>
      <point x="1513" y="196"/>
      <point x="1546" y="235"/>
      <point x="1546" y="281" type="curve" smooth="yes"/>
      <point x="1546" y="304"/>
      <point x="1541" y="327"/>
      <point x="1524" y="348" type="curve"/>
      <point x="1182" y="777" type="line"/>
      <point x="1524" y="1207" type="line"/>
      <point x="1542" y="1231"/>
      <point x="1548" y="1253"/>
      <point x="1548" y="1274" type="curve" smooth="yes"/>
      <point x="1548" y="1322"/>
      <point x="1515" y="1359"/>
      <point x="1470" y="1359" type="curve" smooth="yes"/>
      <point x="1452" y="1359"/>
      <point x="1429" y="1353"/>
      <point x="1405" y="1336" type="curve" smooth="yes"/>
      <point x="881" y="955" type="line" smooth="yes"/>
      <point x="825" y="913"/>
      <point x="794" y="844"/>
      <point x="793" y="776" type="curve"/>
      <point x="793" y="710"/>
      <point x="823" y="643"/>
      <point x="881" y="600" type="curve" smooth="yes"/>
      <point x="1405" y="219" type="line" smooth="yes"/>
      <point x="1428" y="202"/>
      <point x="1449" y="196"/>
    </contour>
  </outline>
</glyph>
<glyph name="degree" format="1">
  <advance width="1101"/>
  <unicode hex="00B0"/>
  <outline>
    <contour>
      <point x="545" y="1215" type="curve" smooth="yes"/>
      <point x="461" y="1215"/>
      <point x="402" y="1277"/>
      <point x="402" y="1366" type="curve" smooth="yes"/>
      <point x="402" y="1455"/>
      <point x="461" y="1517"/>
      <point x="545" y="1517" type="curve" smooth="yes"/>
      <point x="629" y="1517"/>
      <point x="688" y="1455"/>
      <point x="688" y="1366" type="curve" smooth="yes"/>
      <point x="688" y="1277"/>
      <point x="629" y="1215"/>
    </contour>
    <contour>
      <point x="545" y="1068" type="curve" smooth="yes"/>
      <point x="751" y="1068"/>
      <point x="873" y="1211"/>
      <point x="873" y="1366" type="curve" smooth="yes"/>
      <point x="873" y="1521"/>
      <point x="751" y="1665"/>
      <point x="545" y="1665" type="curve" smooth="yes"/>
      <point x="339" y="1665"/>
      <point x="216" y="1521"/>
      <point x="216" y="1366" type="curve" smooth="yes"/>
      <point x="216" y="1211"/>
      <point x="339" y="1068"/>
    </contour>
  </outline>
</glyph>
<glyph name="plusminus" format="1">
  <advance width="1469"/>
  <unicode hex="00B1"/>
  <outline>
    <contour>
      <point x="550" y="479" type="line"/>
      <point x="918" y="479" type="line"/>
      <point x="918" y="858" type="line"/>
      <point x="1284" y="858" type="line"/>
      <point x="1284" y="1172" type="line"/>
      <point x="918" y="1172" type="line"/>
      <point x="918" y="1554" type="line"/>
      <point x="550" y="1554" type="line"/>
      <point x="550" y="1172" type="line"/>
      <point x="183" y="1172" type="line"/>
      <point x="183" y="858" type="line"/>
      <point x="550" y="858" type="line"/>
    </contour>
    <contour>
      <point x="307" y="-1" type="line"/>
      <point x="1150" y="-1" type="line"/>
      <point x="1150" y="285" type="line"/>
      <point x="307" y="285" type="line"/>
    </contour>
  </outline>
</glyph>
<glyph name="twosuperior" format="1">
  <advance width="1093"/>
  <unicode hex="00B2"/>
  <outline>
    <contour>
      <point x="163" y="529" type="line"/>
      <point x="959" y="529" type="line"/>
      <point x="959" y="721" type="line"/>
      <point x="509" y="721" type="line"/>
      <point x="509" y="798"/>
      <point x="581" y="841"/>
      <point x="666" y="876" type="curve" smooth="yes"/>
      <point x="832" y="948"/>
      <point x="997" y="1029"/>
      <point x="997" y="1271" type="curve" smooth="yes"/>
      <point x="997" y="1537"/>
      <point x="844" y="1604"/>
      <point x="582" y="1604" type="curve" smooth="yes"/>
      <point x="339" y="1604"/>
      <point x="156" y="1543"/>
      <point x="162" y="1273" type="curve" smooth="yes"/>
      <point x="163" y="1231" type="line"/>
      <point x="510" y="1233" type="line"/>
      <point x="510" y="1413" type="line" smooth="yes"/>
      <point x="510" y="1421"/>
      <point x="556" y="1427"/>
      <point x="577" y="1427" type="curve" smooth="yes"/>
      <point x="595" y="1427"/>
      <point x="643" y="1423"/>
      <point x="643" y="1415" type="curve" smooth="yes"/>
      <point x="643" y="1270" type="line" smooth="yes"/>
      <point x="643" y="1212"/>
      <point x="570" y="1183"/>
      <point x="496" y="1155" type="curve" smooth="yes"/>
      <point x="293" y="1077"/>
      <point x="163" y="965"/>
      <point x="163" y="703" type="curve" smooth="yes"/>
    </contour>
  </outline>
</glyph>
<glyph name="cedilla" format="1">
  <advance width="1031"/>
  <unicode hex="00B8"/>
  <outline>
    <contour>
      <point x="594" y="0" type="move" name="_bot"/>
    </contour>
    <contour>
      <point x="542" y="19" type="line"/>
      <point x="503" y="-132" type="line" smooth="yes"/>
      <point x="476" y="-233"/>
      <point x="464" y="-284"/>
      <point x="464" y="-287" type="curve"/>
      <point x="558" y="-287"/>
      <point x="604" y="-315"/>
      <point x="604" y="-366" type="curve" smooth="yes"/>
      <point x="604" y="-399"/>
      <point x="583" y="-411"/>
      <point x="549" y="-411" type="curve" smooth="yes"/>
      <point x="486" y="-411"/>
      <point x="393" y="-363"/>
      <point x="386" y="-361" type="curve"/>
      <point x="332" y="-463" type="line"/>
      <point x="398" y="-521"/>
      <point x="492" y="-551"/>
      <point x="579" y="-551" type="curve" smooth="yes"/>
      <point x="707" y="-551"/>
      <point x="829" y="-487"/>
      <point x="829" y="-354" type="curve" smooth="yes"/>
      <point x="829" y="-199"/>
      <point x="740" y="-168"/>
      <point x="612" y="-150" type="curve"/>
      <point x="662" y="19" type="line"/>
    </contour>
  </outline>
</glyph>
<glyph name="ordmasculine" format="1">
  <advance width="1387"/>
  <unicode hex="00BA"/>
  <outline>
    <contour>
      <point x="691" y="525" type="curve" smooth="yes"/>
      <point x="944" y="528"/>
      <point x="1195" y="544"/>
      <point x="1195" y="847" type="curve" smooth="yes"/>
      <point x="1195" y="1282" type="line" smooth="yes"/>
      <point x="1195" y="1576"/>
      <point x="949" y="1605"/>
      <point x="692" y="1605" type="curve" smooth="yes"/>
      <point x="447" y="1605"/>
      <point x="184" y="1581"/>
      <point x="184" y="1283" type="curve" smooth="yes"/>
      <point x="184" y="848" type="line" smooth="yes"/>
      <point x="184" y="548"/>
      <point x="432" y="525"/>
    </contour>
    <contour>
      <point x="611" y="739" type="curve" smooth="yes"/>
      <point x="611" y="1416" type="line" smooth="yes"/>
      <point x="611" y="1422"/>
      <point x="680" y="1423"/>
      <point x="690" y="1423" type="curve" smooth="yes"/>
      <point x="700" y="1423"/>
      <point x="768" y="1422"/>
      <point x="768" y="1416" type="curve" smooth="yes"/>
      <point x="768" y="739" type="line" smooth="yes"/>
      <point x="768" y="733"/>
      <point x="703" y="732"/>
      <point x="690" y="732" type="curve" smooth="yes"/>
      <point x="676" y="732"/>
      <point x="611" y="733"/>
    </contour>
  </outline>
</glyph>
<glyph name="Oslash" format="1">
  <advance width="1735"/>
  <unicode hex="00D8"/>
  <outline>
    <contour>
      <point x="852" y="1595" type="move" name="top"/>
    </contour>
    <contour>
      <point x="1266" y="1309" type="line"/>
      <point x="1517" y="1707" type="line"/>
      <point x="1394" y="1779" type="line"/>
      <point x="1138" y="1373" type="line"/>
    </contour>
    <contour>
      <point x="309" y="-147" type="line"/>
      <point x="508" y="172" type="line"/>
      <point x="392" y="251" type="line"/>
      <point x="190" y="-73" type="line"/>
    </contour>
    <component base="O"/>
  </outline>
</glyph>
<glyph name="thorn" format="1">
  <advance width="1555"/>
  <unicode hex="00FE"/>
  <outline>
    <contour>
      <point x="172" y="-408" type="line"/>
      <point x="705" y="-407" type="line"/>
      <point x="705" y="81" type="line"/>
      <point x="752" y="14"/>
      <point x="848" y="-24"/>
      <point x="988" y="-24" type="curve" smooth="yes"/>
      <point x="1284" y="-24"/>
      <point x="1395" y="113"/>
      <point x="1395" y="404" type="curve" smooth="yes"/>
      <point x="1395" y="872" type="line" smooth="yes"/>
      <point x="1395" y="1071"/>
      <point x="1289" y="1308"/>
      <point x="986" y="1308" type="curve" smooth="yes"/>
      <point x="851" y="1308"/>
      <point x="744" y="1289"/>
      <point x="705" y="1208" type="curve"/>
      <point x="705" y="1600" type="line"/>
      <point x="172" y="1598" type="line"/>
    </contour>
    <contour>
      <point x="809" y="195" type="curve" smooth="yes"/>
      <point x="786" y="195"/>
      <point x="707" y="195"/>
      <point x="707" y="216" type="curve" smooth="yes"/>
      <point x="707" y="226"/>
      <point x="707" y="1059"/>
      <point x="707" y="1076" type="curve" smooth="yes"/>
      <point x="707" y="1094"/>
      <point x="783" y="1096"/>
      <point x="811" y="1096" type="curve" smooth="yes"/>
      <point x="832" y="1096"/>
      <point x="909" y="1096"/>
      <point x="909" y="1073" type="curve" smooth="yes"/>
      <point x="909" y="1064"/>
      <point x="909" y="231"/>
      <point x="909" y="220" type="curve" smooth="yes"/>
      <point x="909" y="200"/>
      <point x="831" y="195"/>
    </contour>
  </outline>
</glyph>
<glyph name="kgreenlandic" format="1">
  <advance width="1613"/>
  <unicode hex="0138"/>
  <outline>
    <contour>
      <point x="143" y="0" type="line"/>
      <point x="689" y="0" type="line"/>
      <point x="689" y="330" type="line"/>
      <point x="800" y="464" type="line"/>
      <point x="1008" y="0" type="line"/>
      <point x="1547" y="0" type="line"/>
      <point x="1180" y="774" type="line"/>
      <point x="1523" y="1280" type="line"/>
      <point x="973" y="1280" type="line"/>
      <point x="788" y="987" type="line" smooth="yes"/>
      <point x="783" y="980"/>
      <point x="694" y="838"/>
      <point x="689" y="832" type="curve"/>
      <point x="689" y="837"/>
      <point x="689" y="996"/>
      <point x="689" y="1001" type="curve" smooth="yes"/>
      <point x="689" y="1279" type="line"/>
      <point x="143" y="1277" type="line"/>
    </contour>
  </outline>
</glyph>
<glyph name="dotlessj" format="1">
  <advance width="1158"/>
  <unicode hex="0237"/>
  <outline>
    <contour>
      <point x="616" y="1280" type="move" name="top"/>
    </contour>
    <contour>
      <point x="354" y="1280" type="line"/>
      <point x="354" y="-66" type="line" smooth="yes"/>
      <point x="354" y="-78"/>
      <point x="175" y="-76"/>
      <point x="167" y="-77" type="curve"/>
      <point x="194" y="-304" type="line"/>
      <point x="271" y="-319"/>
      <point x="346" y="-324"/>
      <point x="448" y="-324" type="curve" smooth="yes"/>
      <point x="735" y="-324"/>
      <point x="888" y="-199"/>
      <point x="888" y="91" type="curve" smooth="yes"/>
      <point x="888" y="1280" type="line"/>
    </contour>
  </outline>
</glyph>
<glyph name="caron" format="1">
  <advance width="1266"/>
  <unicode hex="02C7"/>
  <outline>
    <contour>
      <point x="748" y="1280" type="move" name="_top"/>
    </contour>
    <contour>
      <point x="750" y="1391" type="curve" smooth="yes"/>
      <point x="801" y="1391"/>
      <point x="854" y="1412"/>
      <point x="886" y="1461" type="curve" smooth="yes"/>
      <point x="1142" y="1860" type="line" smooth="yes"/>
      <point x="1167" y="1899"/>
      <point x="1162" y="1934"/>
      <point x="1142" y="1954" type="curve" smooth="yes"/>
      <point x="1119" y="1976"/>
      <point x="1079" y="1979"/>
      <point x="1045" y="1950" type="curve" smooth="yes"/>
      <point x="749" y="1715" type="line"/>
      <point x="453" y="1950" type="line" smooth="yes"/>
      <point x="419" y="1978"/>
      <point x="380" y="1973"/>
      <point x="358" y="1953" type="curve" smooth="yes"/>
      <point x="337" y="1934"/>
      <point x="331" y="1900"/>
      <point x="356" y="1860" type="curve" smooth="yes"/>
      <point x="612" y="1461" type="line" smooth="yes"/>
      <point x="642" y="1414"/>
      <point x="697" y="1391"/>
    </contour>
  </outline>
</glyph>
<glyph name="uni02C9" format="1">
  <advance width="1247"/>
  <unicode hex="02C9"/>
  <outline>
    <contour>
      <point x="733" y="1280" type="move" name="_top"/>
    </contour>
    <contour>
      <point x="332" y="1709" type="line"/>
      <point x="332" y="1488" type="line"/>
      <point x="1141" y="1488" type="line"/>
      <point x="1141" y="1709" type="line"/>
    </contour>
  </outline>
</glyph>
<glyph name="tilde" format="1">
  <advance width="1418"/>
  <unicode hex="02DC"/>
  <outline>
    <contour>
      <point x="730" y="1280" type="move" name="_top"/>
    </contour>
    <contour>
      <point x="972" y="1404" type="curve" smooth="yes"/>
      <point x="1132" y="1404"/>
      <point x="1247" y="1603"/>
      <point x="1269" y="1722" type="curve"/>
      <point x="1156" y="1835" type="line"/>
      <point x="1103" y="1760"/>
      <point x="1077" y="1719"/>
      <point x="994" y="1719" type="curve" smooth="yes"/>
      <point x="891" y="1719"/>
      <point x="754" y="1853"/>
      <point x="576" y="1853" type="curve" smooth="yes"/>
      <point x="366" y="1853"/>
      <point x="257" y="1735"/>
      <point x="202" y="1557" type="curve"/>
      <point x="296" y="1443" type="line"/>
      <point x="346" y="1512"/>
      <point x="406" y="1556"/>
      <point x="501" y="1556" type="curve" smooth="yes"/>
      <point x="678" y="1556"/>
      <point x="797" y="1404"/>
    </contour>
  </outline>
</glyph>
<glyph name="hungarumlaut" format="1">
  <advance width="1712"/>
  <unicode hex="02DD"/>
  <outline>
    <contour>
      <point x="843" y="1280" type="move" name="_top"/>
    </contour>
    <contour>
      <point x="430" y="1371" type="curve"/>
      <point x="615" y="1427"/>
      <point x="910" y="1506"/>
      <point x="1006" y="1561" type="curve" smooth="yes"/>
      <point x="1084" y="1605"/>
      <point x="1118" y="1672"/>
      <point x="1118" y="1735" type="curve" smooth="yes"/>
      <point x="1118" y="1825"/>
      <point x="1050" y="1905"/>
      <point x="951" y="1905" type="curve" smooth="yes"/>
      <point x="913" y="1905"/>
      <point x="873" y="1894"/>
      <point x="830" y="1868" type="curve" smooth="yes"/>
      <point x="735" y="1813"/>
      <point x="520" y="1601"/>
      <point x="374" y="1467" type="curve"/>
      <point x="339" y="1436"/>
      <point x="337" y="1403"/>
      <point x="354" y="1385" type="curve"/>
      <point x="368" y="1369"/>
      <point x="400" y="1359"/>
    </contour>
    <contour>
      <point x="1096" y="1371" type="curve"/>
      <point x="1281" y="1427"/>
      <point x="1576" y="1506"/>
      <point x="1672" y="1561" type="curve" smooth="yes"/>
      <point x="1750" y="1605"/>
      <point x="1784" y="1672"/>
      <point x="1784" y="1735" type="curve" smooth="yes"/>
      <point x="1784" y="1825"/>
      <point x="1716" y="1905"/>
      <point x="1617" y="1905" type="curve" smooth="yes"/>
      <point x="1579" y="1905"/>
      <point x="1539" y="1894"/>
      <point x="1496" y="1868" type="curve" smooth="yes"/>
      <point x="1401" y="1813"/>
      <point x="1186" y="1601"/>
      <point x="1040" y="1467" type="curve"/>
      <point x="1004" y="1435"/>
      <point x="1003" y="1401"/>
      <point x="1021" y="1383" type="curve"/>
      <point x="1036" y="1368"/>
      <point x="1066" y="1360"/>
    </contour>
  </outline>
</glyph>
<glyph name="commaaccent" format="1">
  <advance width="961"/>
  <unicode hex="0326"/>
  <outline>
    <contour>
      <point x="540" y="0" type="move" name="_bot"/>
    </contour>
    <contour>
      <point x="360" y="-731" type="line"/>
      <point x="582" y="-731"/>
      <point x="744" y="-568"/>
      <point x="744" y="-356" type="curve" smooth="yes"/>
      <point x="744" y="-227"/>
      <point x="678" y="-133"/>
      <point x="538" y="-133" type="curve" smooth="yes"/>
      <point x="437" y="-133"/>
      <point x="338" y="-187"/>
      <point x="338" y="-315" type="curve" smooth="yes"/>
      <point x="338" y="-440"/>
      <point x="420" y="-491"/>
      <point x="514" y="-500" type="curve"/>
      <point x="508" y="-579"/>
      <point x="440" y="-625"/>
      <point x="360" y="-627" type="curve"/>
    </contour>
  </outline>
</glyph>
<glyph name="mu" format="1">
  <advance width="1600"/>
  <unicode hex="03BC"/>
  <outline>
    <contour>
      <point x="895" y="1280" type="line"/>
      <point x="895" y="248" type="line"/>
      <point x="895" y="233"/>
      <point x="822" y="222"/>
      <point x="794" y="222" type="curve" smooth="yes"/>
      <point x="775" y="222"/>
      <point x="699" y="225"/>
      <point x="698" y="238" type="curve"/>
      <point x="698" y="1280" type="line"/>
      <point x="164" y="1280" type="line"/>
      <point x="164" y="-259" type="line"/>
      <point x="698" y="-259" type="line"/>
      <point x="698" y="-8" type="line"/>
      <point x="784" y="9"/>
      <point x="875" y="47"/>
      <point x="911" y="115" type="curve"/>
      <point x="946" y="0" type="line"/>
      <point x="1430" y="0" type="line"/>
      <point x="1430" y="1280" type="line"/>
    </contour>
  </outline>
</glyph>
<glyph name="pi" format="1">
  <advance width="1720"/>
  <unicode hex="03C0"/>
  <outline>
    <contour>
      <point x="1383" y="-32" type="curve" smooth="yes"/>
      <point x="1464" y="-32"/>
      <point x="1562" y="-8"/>
      <point x="1650" y="55" type="curve"/>
      <point x="1650" y="222" type="line"/>
      <point x="1598" y="206"/>
      <point x="1533" y="197"/>
      <point x="1489" y="200" type="curve" smooth="yes"/>
      <point x="1409" y="207"/>
      <point x="1337" y="262"/>
      <point x="1329" y="414" type="curve" smooth="yes"/>
      <point x="1320" y="578"/>
      <point x="1347" y="741"/>
      <point x="1418" y="993" type="curve"/>
      <point x="1631" y="993" type="line"/>
      <point x="1644" y="1280" type="line"/>
      <point x="524" y="1280" type="line" smooth="yes"/>
      <point x="231" y="1280"/>
      <point x="98" y="1097"/>
      <point x="98" y="831" type="curve"/>
      <point x="250" y="831" type="line"/>
      <point x="263" y="924"/>
      <point x="312" y="993"/>
      <point x="408" y="993" type="curve" smooth="yes"/>
      <point x="499" y="993" type="line"/>
      <point x="398" y="455" type="line" smooth="yes"/>
      <point x="357" y="235"/>
      <point x="266" y="228"/>
      <point x="159" y="228" type="curve"/>
      <point x="159" y="0" type="line"/>
      <point x="582" y="0"/>
      <point x="725" y="107"/>
      <point x="749" y="376" type="curve" smooth="yes"/>
      <point x="804" y="993" type="line"/>
      <point x="1150" y="993" type="line"/>
      <point x="1073" y="812"/>
      <point x="963" y="596"/>
      <point x="970" y="344" type="curve" smooth="yes"/>
      <point x="976" y="87"/>
      <point x="1187" y="-32"/>
    </contour>
  </outline>
</glyph>
<glyph name="quotedblbase" format="1">
  <advance width="1257"/>
  <unicode hex="201E"/>
  <outline>
    <contour>
      <point x="439" y="-343" type="curve"/>
      <point x="479" y="-172"/>
      <point x="570" y="98"/>
      <point x="570" y="203" type="curve" smooth="yes"/>
      <point x="570" y="316"/>
      <point x="479" y="375"/>
      <point x="386" y="375" type="curve" smooth="yes"/>
      <point x="294" y="375"/>
      <point x="210" y="320"/>
      <point x="210" y="204" type="curve" smooth="yes"/>
      <point x="210" y="101"/>
      <point x="297" y="-167"/>
      <point x="337" y="-342" type="curve"/>
      <point x="347" y="-378"/>
      <point x="368" y="-395"/>
      <point x="388" y="-395" type="curve"/>
      <point x="408" y="-395"/>
      <point x="431" y="-378"/>
    </contour>
    <contour>
      <point x="915" y="-343" type="curve"/>
      <point x="955" y="-172"/>
      <point x="1046" y="98"/>
      <point x="1046" y="203" type="curve" smooth="yes"/>
      <point x="1046" y="316"/>
      <point x="955" y="375"/>
      <point x="862" y="375" type="curve" smooth="yes"/>
      <point x="770" y="375"/>
      <point x="686" y="320"/>
      <point x="686" y="204" type="curve" smooth="yes"/>
      <point x="686" y="101"/>
      <point x="773" y="-167"/>
      <point x="813" y="-342" type="curve"/>
      <point x="823" y="-378"/>
      <point x="844" y="-395"/>
      <point x="864" y="-395" type="curve"/>
      <point x="884" y="-395"/>
      <point x="906" y="-378"/>
    </contour>
  </outline>
</glyph>
<glyph name="daggerdbl" format="1">
  <advance width="1448"/>
  <unicode hex="2021"/>
  <outline>
    <contour>
      <point x="716" y="-39" type="curve" smooth="yes"/>
      <point x="810" y="-39"/>
      <point x="902" y="19"/>
      <point x="902" y="128" type="curve" smooth="yes"/>
      <point x="902" y="227"/>
      <point x="837" y="361"/>
      <point x="778" y="483" type="curve"/>
      <point x="877" y="446"/>
      <point x="1001" y="388"/>
      <point x="1098" y="388" type="curve" smooth="yes"/>
      <point x="1175" y="388"/>
      <point x="1214" y="458"/>
      <point x="1214" y="527" type="curve" smooth="yes"/>
      <point x="1214" y="599"/>
      <point x="1174" y="668"/>
      <point x="1095" y="668" type="curve" smooth="yes"/>
      <point x="1010" y="668"/>
      <point x="891" y="617"/>
      <point x="785" y="576" type="curve"/>
      <point x="785" y="1004" type="line"/>
      <point x="890" y="964"/>
      <point x="1009" y="913"/>
      <point x="1095" y="913" type="curve" smooth="yes"/>
      <point x="1174" y="913"/>
      <point x="1214" y="981"/>
      <point x="1214" y="1052" type="curve" smooth="yes"/>
      <point x="1214" y="1124"/>
      <point x="1175" y="1193"/>
      <point x="1097" y="1193" type="curve" smooth="yes"/>
      <point x="1009" y="1193"/>
      <point x="887" y="1139"/>
      <point x="778" y="1097" type="curve"/>
      <point x="837" y="1222"/>
      <point x="902" y="1354"/>
      <point x="902" y="1452" type="curve" smooth="yes"/>
      <point x="902" y="1561"/>
      <point x="810" y="1620"/>
      <point x="716" y="1620" type="curve" smooth="yes"/>
      <point x="624" y="1620"/>
      <point x="535" y="1563"/>
      <point x="535" y="1451" type="curve" smooth="yes"/>
      <point x="535" y="1353"/>
      <point x="597" y="1216"/>
      <point x="653" y="1104" type="curve"/>
      <point x="534" y="1151"/>
      <point x="428" y="1193"/>
      <point x="349" y="1193" type="curve" smooth="yes"/>
      <point x="271" y="1193"/>
      <point x="230" y="1123"/>
      <point x="230" y="1052" type="curve" smooth="yes"/>
      <point x="230" y="980"/>
      <point x="270" y="913"/>
      <point x="350" y="913" type="curve" smooth="yes"/>
      <point x="427" y="913"/>
      <point x="531" y="954"/>
      <point x="649" y="1000" type="curve"/>
      <point x="649" y="581" type="line"/>
      <point x="531" y="627"/>
      <point x="427" y="668"/>
      <point x="350" y="668" type="curve" smooth="yes"/>
      <point x="270" y="668"/>
      <point x="230" y="601"/>
      <point x="230" y="529" type="curve" smooth="yes"/>
      <point x="230" y="457"/>
      <point x="271" y="388"/>
      <point x="349" y="388" type="curve" smooth="yes"/>
      <point x="428" y="388"/>
      <point x="534" y="430"/>
      <point x="653" y="477" type="curve"/>
      <point x="593" y="349"/>
      <point x="535" y="226"/>
      <point x="535" y="129" type="curve" smooth="yes"/>
      <point x="535" y="17"/>
      <point x="624" y="-39"/>
    </contour>
  </outline>
</glyph>
<glyph name="fraction" format="1">
  <advance width="1212"/>
  <unicode hex="2044"/>
  <outline>
    <contour>
      <point x="213" y="0" type="line"/>
      <point x="547" y="0" type="line"/>
      <point x="999" y="1585" type="line"/>
      <point x="594" y="1585" type="line"/>
    </contour>
  </outline>
</glyph>
<glyph name="trademark" format="1">
  <advance width="1813"/>
  <unicode hex="2122"/>
  <outline>
    <contour>
      <point x="738" y="678" type="line"/>
      <point x="1083" y="678" type="line"/>
      <point x="1083" y="984" type="line"/>
      <point x="1166" y="678" type="line"/>
      <point x="1270" y="678" type="line"/>
      <point x="1355" y="984" type="line"/>
      <point x="1355" y="678" type="line"/>
      <point x="1700" y="678" type="line"/>
      <point x="1700" y="1585" type="line"/>
      <point x="1289" y="1585" type="line"/>
      <point x="1220" y="1146" type="line"/>
      <point x="1144" y="1585" type="line"/>
      <point x="738" y="1585" type="line"/>
    </contour>
    <contour>
      <point x="177" y="678" type="line"/>
      <point x="525" y="678" type="line"/>
      <point x="525" y="1448" type="line"/>
      <point x="687" y="1448" type="line"/>
      <point x="687" y="1585" type="line"/>
      <point x="15" y="1585" type="line"/>
      <point x="15" y="1448" type="line"/>
      <point x="177" y="1448" type="line"/>
    </contour>
  </outline>
</glyph>
<glyph name="estimated" format="1">
  <advance width="1405"/>
  <unicode hex="212E"/>
  <outline>
    <contour>
      <point x="743" y="-20" type="curve" smooth="yes"/>
      <point x="950" y="-20"/>
      <point x="1085" y="70"/>
      <point x="1185" y="188" type="curve"/>
      <point x="1133" y="239" type="line"/>
      <point x="1035" y="134"/>
      <point x="923" y="53"/>
      <point x="743" y="53" type="curve" smooth="yes"/>
      <point x="513" y="53"/>
      <point x="430" y="245"/>
      <point x="429" y="521" type="curve"/>
      <point x="1193" y="521" type="line"/>
      <point x="1193" y="869"/>
      <point x="1045" y="1102"/>
      <point x="725" y="1102" type="curve" smooth="yes"/>
      <point x="402" y="1102"/>
      <point x="172" y="861"/>
      <point x="172" y="541" type="curve" smooth="yes"/>
      <point x="172" y="221"/>
      <point x="360" y="-20"/>
    </contour>
    <contour>
      <point x="431" y="601" type="line"/>
      <point x="446" y="863"/>
      <point x="558" y="1042"/>
      <point x="731" y="1042" type="curve" smooth="yes"/>
      <point x="940" y="1042"/>
      <point x="981" y="836"/>
      <point x="981" y="601" type="curve"/>
    </contour>
  </outline>
</glyph>
<glyph name="product" format="1">
  <advance width="1725"/>
  <unicode hex="220F"/>
  <outline>
    <contour>
      <point x="744" y="1302" type="line"/>
      <point x="982" y="1302" type="line"/>
      <point x="982" y="-126" type="line"/>
      <point x="1548" y="-126" type="line"/>
      <point x="1548" y="1585" type="line"/>
      <point x="177" y="1585" type="line"/>
      <point x="177" y="-126" type="line"/>
      <point x="744" y="-126" type="line"/>
    </contour>
  </outline>
</glyph>
<glyph name="uni2215" format="1">
  <advance width="996"/>
  <unicode hex="2215"/>
  <outline>
    <contour>
      <point x="208" y="0" type="line"/>
      <point x="614" y="0" type="line"/>
      <point x="991" y="1581" type="line"/>
      <point x="585" y="1581" type="line"/>
    </contour>
  </outline>
</glyph>
<glyph name="radical" format="1">
  <advance width="1443"/>
  <unicode hex="221A"/>
  <outline>
    <contour>
      <point x="537" y="0" type="line"/>
      <point x="686" y="0" type="line"/>
      <point x="1319" y="1464" type="line"/>
      <point x="1089" y="1464" type="line"/>
      <point x="593" y="251" type="line"/>
      <point x="376" y="658" type="line"/>
      <point x="151" y="658" type="line"/>
    </contour>
  </outline>
</glyph>
<glyph name="notequal" format="1">
  <advance width="1204"/>
  <unicode hex="2260"/>
  <outline>
    <contour>
      <point x="361" y="174" type="line"/>
      <point x="540" y="174" type="line"/>
      <point x="624" y="414" type="line"/>
      <point x="1027" y="414" type="line"/>
      <point x="1027" y="603" type="line"/>
      <point x="690" y="603" type="line"/>
      <point x="755" y="792" type="line"/>
      <point x="1027" y="792" type="line"/>
      <point x="1027" y="981" type="line"/>
      <point x="821" y="981" type="line"/>
      <point x="906" y="1224" type="line"/>
      <point x="728" y="1224" type="line"/>
      <point x="643" y="981" type="line"/>
      <point x="192" y="981" type="line"/>
      <point x="192" y="792" type="line"/>
      <point x="577" y="792" type="line"/>
      <point x="511" y="603" type="line"/>
      <point x="192" y="603" type="line"/>
      <point x="192" y="414" type="line"/>
      <point x="445" y="414" type="line"/>
    </contour>
  </outline>
</glyph>
<glyph name="lessequal" format="1">
  <advance width="1326"/>
  <unicode hex="2264"/>
  <outline>
    <contour>
      <point x="1104" y="394" type="line"/>
      <point x="1104" y="778" type="line"/>
      <point x="494" y="906" type="line"/>
      <point x="1104" y="1026" type="line"/>
      <point x="1104" y="1414" type="line"/>
      <point x="221" y="1097" type="line"/>
      <point x="221" y="709" type="line"/>
    </contour>
    <contour>
      <point x="215" y="0" type="line"/>
      <point x="1105" y="0" type="line"/>
      <point x="1105" y="316" type="line"/>
      <point x="215" y="316" type="line"/>
    </contour>
  </outline>
</glyph>
<glyph name="greaterequal" format="1">
  <advance width="1321"/>
  <unicode hex="2265"/>
  <outline>
    <contour>
      <point x="215" y="395" type="line"/>
      <point x="1099" y="708" type="line"/>
      <point x="1099" y="1097" type="line"/>
      <point x="215" y="1416" type="line"/>
      <point x="215" y="1029" type="line"/>
      <point x="826" y="907" type="line"/>
      <point x="215" y="780" type="line"/>
    </contour>
    <contour>
      <point x="216" y="0" type="line"/>
      <point x="1106" y="0" type="line"/>
      <point x="1106" y="316" type="line"/>
      <point x="216" y="316" type="line"/>
    </contour>
  </outline>
</glyph>
